<mxfile host="65bd71144e">
    <diagram id="-G5Dfb70CqSLj6PkliE8" name="ページ1">
        <mxGraphModel dx="1098" dy="997" grid="1" gridSize="10" guides="1" tooltips="1" connect="1" arrows="1" fold="1" page="1" pageScale="1" pageWidth="827" pageHeight="1169" math="0" shadow="0">
            <root>
                <mxCell id="0"/>
                <mxCell id="1" parent="0"/>
                <mxCell id="6" value="調理する&lt;span style=&quot;color: rgb(90 , 90 , 90) ; font-family: &amp;#34;roboto&amp;#34; , sans-serif ; font-size: 18px ; background-color: rgba(90 , 90 , 90 , 0.02)&quot;&gt;🔪&lt;/span&gt;" style="rounded=1;whiteSpace=wrap;html=1;fontSize=20;labelPosition=center;verticalLabelPosition=top;align=center;verticalAlign=bottom;" vertex="1" parent="1">
                    <mxGeometry x="70" y="150" width="420" height="60" as="geometry"/>
                </mxCell>
                <mxCell id="2" value="米を炊く🍚" style="rounded=1;whiteSpace=wrap;html=1;fontSize=20;" vertex="1" parent="1">
                    <mxGeometry x="70" y="80" width="400" height="40" as="geometry"/>
                </mxCell>
                <mxCell id="3" value="味噌汁をつくる🥣" style="rounded=1;whiteSpace=wrap;html=1;fontSize=20;" vertex="1" parent="1">
                    <mxGeometry x="80" y="160" width="180" height="40" as="geometry"/>
                </mxCell>
                <mxCell id="4" value="おかずをつくる🍳" style="rounded=1;whiteSpace=wrap;html=1;fontSize=20;" vertex="1" parent="1">
                    <mxGeometry x="290" y="160" width="190" height="40" as="geometry"/>
                </mxCell>
                <mxCell id="5" value="いただきます&lt;br&gt;🥢" style="rounded=1;whiteSpace=wrap;html=1;fontSize=20;" vertex="1" parent="1">
                    <mxGeometry x="510" y="80" width="130" height="130" as="geometry"/>
                </mxCell>
                <mxCell id="8" value="" style="endArrow=classic;html=1;fontSize=20;exitX=1;exitY=0.5;exitDx=0;exitDy=0;entryX=0;entryY=0.5;entryDx=0;entryDy=0;strokeWidth=3;" edge="1" parent="1" source="3" target="4">
                    <mxGeometry width="50" height="50" relative="1" as="geometry">
                        <mxPoint x="390" y="520" as="sourcePoint"/>
                        <mxPoint x="440" y="470" as="targetPoint"/>
                    </mxGeometry>
                </mxCell>
                <mxCell id="9" value="" style="endArrow=classic;html=1;fontSize=20;exitX=1;exitY=0.75;exitDx=0;exitDy=0;strokeWidth=3;" edge="1" parent="1" source="2" target="5">
                    <mxGeometry width="50" height="50" relative="1" as="geometry">
                        <mxPoint x="270" y="190" as="sourcePoint"/>
                        <mxPoint x="300" y="190" as="targetPoint"/>
                    </mxGeometry>
                </mxCell>
                <mxCell id="11" value="" style="endArrow=classic;html=1;fontSize=20;exitX=1;exitY=0.5;exitDx=0;exitDy=0;strokeWidth=3;" edge="1" parent="1" source="6" target="5">
                    <mxGeometry width="50" height="50" relative="1" as="geometry">
                        <mxPoint x="480" y="120" as="sourcePoint"/>
                        <mxPoint x="519" y="140" as="targetPoint"/>
                    </mxGeometry>
                </mxCell>
            </root>
        </mxGraphModel>
    </diagram>
</mxfile>